<?xml version="1.0" ?><!DOCTYPE svg  PUBLIC '-//W3C//DTD SVG 1.1//EN'  'http://www.w3.org/Graphics/SVG/1.1/DTD/svg11.dtd'><svg enable-background="new 0 0 512 512" height="512px" id="Precison_1_" version="1.1" viewBox="0 0 512 512" width="512px" xml:space="preserve" xmlns="http://www.w3.org/2000/svg" xmlns:xlink="http://www.w3.org/1999/xlink"><path d="M256.151,0C397.423,0,512,114.577,512,255.853C512,397.423,397.423,512,256.151,512  C114.577,512,0,397.423,0,255.853C0,114.577,114.577,0,256.151,0z" fill="#5CA47A" id="Background"/><g id="Precison"><path d="M242.653,163.617h0.899h0.899h0.903h0.895h0.903h0.301c1.196,0,2.396,1.2,2.099,2.4   c0,1.2-0.903,2.4-2.4,2.4l0,0l-0.903-0.301h-0.895h-0.903h-0.899h-0.899h-0.899h-0.9h-0.602c-1.497,0-2.4-0.899-2.4-2.099   c-0.301-1.501,0.903-2.4,2.099-2.4h0.903h0.9H242.653z M225.558,164.517c1.497-0.302,2.697,0.602,2.697,2.099   c0.301,1.204-0.899,2.4-2.099,2.4l-0.598,0.301h-0.903h-0.598l-0.899,0.301h-0.903l-0.598,0.301c-1.501,0-2.697-0.903-2.697-2.099   c-0.301-1.204,0.598-2.4,1.798-2.701h0.602l0.895-0.301h0.903l0.899-0.301h0.899H225.558z M206.657,167.82   c1.204-0.301,2.701,0.598,3.002,1.798c0.301,1.196-0.602,2.697-1.798,2.998h-0.301l-0.602,0.297h-0.899l-0.899,0.301l-0.899,0.301   l-0.598,0.302h-0.302c-1.204,0.301-2.4-0.302-3.002-1.502c-0.301-1.501,0.602-2.697,1.798-2.998l0,0l0.903-0.301l0.899-0.301   l0.9-0.297l0.903-0.301h0.895V167.82z M188.362,174.118c1.2-0.603,2.701,0,3.299,1.196c0.302,1.204-0.301,2.4-1.497,3.002   l-0.301,0.301l-0.903,0.297l-0.598,0.301l-0.899,0.297l-0.899,0.301l-0.598,0.301c-1.204,0.602-2.701,0-3.002-1.2   c-0.602-1.2,0-2.396,1.2-2.998l0.598-0.301l0.903-0.598l0.598-0.301l0.899-0.297l0.903-0.301H188.362z M171.264,182.213   c0.903-0.598,2.4,0,3.002,0.903c0.899,1.196,0.301,2.697-0.602,3.296l-0.598,0.301l-0.598,0.301l-0.903,0.602l-0.598,0.297   l-0.899,0.598l-0.602,0.301c-1.196,0.602-2.401,0.301-3.295-0.899c-0.603-0.899-0.302-2.401,0.894-2.999l0.603-0.602l0.899-0.301   l0.598-0.598l0.903-0.297l0.598-0.602L171.264,182.213z M155.072,193.01c1.196-0.899,2.697-0.598,3.295,0.301   c0.903,1.2,0.602,2.701-0.301,3.299l-0.297,0.301l-0.598,0.598l-0.903,0.602l-0.598,0.301l-0.598,0.599l-0.602,0.598l0,0   c-1.201,0.903-2.702,0.602-3.3-0.297c-0.899-0.9-0.899-2.401,0.297-3.3l0,0l0.602-0.602l0.602-0.598l0.899-0.598l0.598-0.602   l0.603-0.301L155.072,193.01z M140.67,205.609c0.904-0.899,2.401-0.899,3.304,0c0.895,0.899,0.895,2.4,0,3.299v0.301l-0.602,0.598   l-0.602,0.598l-0.598,0.602l-0.598,0.603l-0.603,0.598h-0.301c-0.895,0.899-2.4,1.2-3.295,0.301c-0.903-0.899-0.903-2.401,0-3.3   v-0.301l0.598-0.602l0.598-0.598l0.602-0.598l0.899-0.903L140.67,205.609L140.67,205.609z M128.075,220.006   c0.603-0.899,2.1-1.2,3.3-0.301c0.899,0.602,1.2,2.099,0.297,3.299l-0.297,0.598l-0.598,0.603l-0.602,0.602l-0.301,0.899   l-0.598,0.598l-0.302,0.301c-0.899,1.2-2.099,1.497-3.299,0.602c-1.2-0.602-1.2-2.099-0.602-3.303l0.301-0.302l0.602-0.895   l0.301-0.602l0.598-0.602l0.598-0.895L128.075,220.006z M117.279,236.207c0.598-1.205,2.099-1.803,3.295-0.904   c1.204,0.602,1.505,2.1,0.903,3.003l-0.301,0.598l-0.602,0.899l-0.297,0.602l-0.301,0.895l-0.598,0.602l-0.301,0.602   c-0.602,1.196-1.798,1.497-2.999,0.899c-1.2-0.598-1.802-2.103-1.2-2.998l0.301-0.602l0.598-0.899l0.301-0.598l0.598-0.903   l0.302-0.598L117.279,236.207z M108.882,253.301c0.598-1.2,1.798-1.798,2.994-1.2c1.204,0.297,1.802,1.798,1.501,2.998   l-0.297,0.602l-0.301,0.899l-0.301,0.899l-0.301,0.602l-0.301,0.896l-0.297,0.602c-0.301,1.2-1.802,1.8-2.998,1.2   c-1.204-0.301-1.802-1.802-1.501-2.998l0.297-0.602l0.301-0.598l0.301-0.899l0.301-0.903l0.301-0.899L108.882,253.301z    M102.876,271.596c0.301-1.2,1.506-2.1,2.702-1.799c1.501,0.297,2.099,1.799,1.798,2.998l0,0l-0.297,0.904v0.896l-0.301,0.902   l-0.297,0.899v0.598v0.301c-0.301,1.2-1.802,2.1-3.003,1.799c-1.196-0.302-2.099-1.497-1.798-2.697v-0.301l0.301-0.899l0.301-0.899   v-0.898l0.297-0.904L102.876,271.596L102.876,271.596z M99.281,290.492c0.301-1.199,1.2-2.099,2.701-2.099   c1.196,0.301,2.1,1.2,2.1,2.701l-0.302,0.598v0.899v0.902v0.896l-0.301,0.903v0.301c0,1.497-1.196,2.396-2.4,2.099   c-1.497,0-2.4-1.204-2.4-2.399l0.301-0.302v-1.199v-0.899v-0.903l0.301-0.895V290.492z M98.381,309.689   c0-1.199,0.899-2.399,2.099-2.399c1.501,0,2.396,0.898,2.396,2.399v0.899l0.301,0.9v0.898v0.899v0.902l0,0   c0,1.497-0.895,2.396-2.4,2.697c-1.196,0-2.396-1.2-2.396-2.399v-0.298v-0.902v-0.899v-0.898v-0.9V309.689z M99.882,328.884   c-0.301-1.199,0.598-2.399,1.798-2.696c1.497-0.302,2.702,0.598,2.702,2.099l0,0l0.297,0.598v0.899l0.301,0.903v0.898l0.297,0.899   v0.301c0.301,1.2-0.598,2.4-1.799,2.697c-1.497,0.302-2.701-0.599-2.998-1.798v-0.302v-0.898l-0.301-0.899v-0.898l-0.297-0.903   V328.884L99.882,328.884z M103.78,347.78c-0.301-1.501,0.302-2.697,1.799-2.998c1.2-0.301,2.4,0.301,2.701,1.497l0.301,0.603   l0.301,0.898v0.604l0.297,0.898l0.301,0.899l0.297,0.598c0.301,1.2-0.297,2.701-1.497,3.002c-1.2,0.297-2.701-0.301-3.002-1.501   l-0.297-0.598l-0.301-0.903l-0.297-0.898v-0.899l-0.301-0.899L103.78,347.78z M110.379,365.778c-0.602-1.199,0-2.7,1.2-3.299   c1.2-0.301,2.697,0,2.998,1.2l0.301,0.899l0.602,0.598l0.297,0.903l0.301,0.598l0.297,0.899l0.301,0.602   c0.603,0.899,0,2.396-1.196,2.998c-1.204,0.598-2.4,0-3.002-1.2l-0.301-0.301l-0.301-0.899l-0.598-0.898l-0.297-0.603l-0.301-0.898   L110.379,365.778z M119.378,382.873c-0.903-1.2-0.301-2.697,0.598-3.299c1.2-0.599,2.701-0.297,3.299,0.602l0.301,0.599   l0.602,0.898l0.297,0.603l0.598,0.598l0.301,0.899l0.301,0.602c0.899,0.899,0.602,2.401-0.602,2.999   c-1.196,0.899-2.396,0.602-3.295-0.598l-0.301-0.603l-0.602-0.598l-0.301-0.9l-0.598-0.602l-0.297-0.599L119.378,382.873z    M130.476,398.472c-0.904-0.9-0.904-2.401,0.301-3.301c0.895-0.898,2.396-0.598,3.295,0.302l0.301,0.301l0.602,0.898l0.301,0.599   l0.598,0.603l0.598,0.599l0.602,0.602c0.899,0.899,0.598,2.396-0.301,3.299c-0.899,0.899-2.4,0.899-3.299-0.301l-0.598-0.602   l-0.602-0.599l-0.602-0.602l-0.598-0.599l-0.297-0.898L130.476,398.472z M143.372,412.567c-0.899-0.899-0.899-2.397,0-3.3   c0.899-0.899,2.4-0.899,3.299,0h0.301l0.598,0.602l0.602,0.599l0.598,0.603l0.598,0.598l0.602,0.603l0,0   c1.2,0.899,1.2,2.396,0.301,3.299c-0.903,0.899-2.4,1.2-3.299,0.297l0,0l-0.899-0.598l-0.602-0.603l-0.602-0.598l-0.598-0.598   l-0.598-0.603L143.372,412.567z M158.066,424.865c-0.895-0.898-1.196-2.4-0.297-3.3c0.598-1.2,2.099-1.2,3.299-0.598l0,0   l0.602,0.598l0.895,0.603l0.602,0.297l0.602,0.603l0.895,0.301v0.298c1.204,0.602,1.506,2.099,0.903,3.299   c-0.903,1.2-2.4,1.501-3.299,0.602h-0.301l-0.899-0.602l-0.602-0.599l-0.598-0.301l-0.899-0.598l-0.602-0.603H158.066z    M174.567,435.063c-1.2-0.598-1.501-2.099-0.903-3.299c0.602-1.2,1.802-1.501,3.002-0.899l0,0l0.899,0.298l0.598,0.602l0.904,0.301   l0.598,0.297l0.899,0.603h0.301c1.2,0.598,1.798,2.099,1.2,3.3c-0.598,1.2-2.099,1.497-3.3,0.899h-0.301l-0.899-0.599l-0.598-0.301   l-0.903-0.301l-0.598-0.598L174.567,435.063L174.567,435.063z M191.963,442.863c-1.201-0.302-1.799-1.799-1.201-2.998   c0.301-1.2,1.803-1.803,2.999-1.2l0,0l0.903,0.297l0.598,0.301l0.899,0.301l0.903,0.302h0.598l0.297,0.297   c1.204,0.301,2.099,1.802,1.501,3.002c-0.297,1.196-1.798,1.798-2.998,1.497l-0.301-0.301l-0.602-0.298h-0.895l-0.903-0.301   l-0.899-0.301l-0.598-0.297L191.963,442.863z M210.558,448.563c-1.501-0.302-2.099-1.503-1.802-3.004   c0.301-1.199,1.505-2.099,2.701-1.798l0.301,0.301h0.899l0.899,0.298h0.903l0.895,0.301l0.602,0.301c1.502,0,2.1,1.501,2.1,2.702   c-0.301,1.196-1.497,2.099-3,1.798h-0.598l-0.903-0.301l-0.899-0.301h-0.899l-0.899-0.297H210.558z M229.456,451.562   c-1.201-0.302-2.401-1.2-2.1-2.701c0-1.196,1.2-2.101,2.401-2.101h0.301h0.895l0.903,0.301h0.899h0.899h0.903l0,0   c1.196,0,2.099,1.201,2.099,2.401c0,1.501-1.204,2.4-2.4,2.4l0,0h-0.903h-0.899l-0.899-0.301h-0.899h-0.899H229.456z    M248.649,451.862c-1.196,0-2.4-0.899-2.4-2.1c0-1.501,0.903-2.4,2.103-2.4l0.598-0.302h0.899h0.903h0.899h0.899h0.598   c1.2-0.301,2.401,0.899,2.401,2.101c0.301,1.2-0.899,2.4-2.1,2.4l-0.598,0.301h-0.899h-0.903h-1.2h-0.899H248.649z    M267.848,449.763c-1.502,0.297-2.698-0.602-2.698-1.803c-0.302-1.2,0.598-2.4,1.799-2.697h0.301l0.899-0.301h0.898l0.899-0.301   l0.899-0.301h0.602c1.2-0.298,2.697,0.602,2.998,1.802c0,1.2-0.598,2.401-2.099,2.698l-0.599,0.301l-0.902,0.301h-0.899   l-0.899,0.301h-0.898H267.848z M286.442,445.263c-1.2,0.297-2.697-0.301-2.998-1.501s0.301-2.697,1.501-2.998l0.899-0.301   l0.598-0.301l0.899-0.297h0.902l0.599-0.302l0.602-0.301c1.196-0.301,2.396,0.301,2.999,1.501c0.301,1.2-0.301,2.4-1.502,2.998   l-0.301,0.301h-0.899l-0.898,0.298l-0.899,0.301l-0.898,0.301L286.442,445.263z M304.44,438.364c-1.2,0.301-2.702,0-3.3-1.2   c-0.602-1.2,0-2.698,1.2-3.301l0,0l0.598-0.301l0.9-0.297l0.903-0.301l0.598-0.603l0.899-0.297l0.301-0.301   c1.2-0.602,2.399,0,2.998,1.2c0.602,1.2,0.301,2.401-0.899,2.999l-0.301,0.301l-0.899,0.301l-0.598,0.599l-0.899,0.301   l-0.902,0.297L304.44,438.364L304.44,438.364z M321.238,428.767c-1.2,0.899-2.701,0.598-3.299-0.602   c-0.903-1.2-0.603-2.697,0.598-3.3l0.602-0.301l0.899-0.598l0.598-0.599l0.603-0.301l0.898-0.603l0.302-0.297   c0.898-0.603,2.396-0.302,3.299,0.598c0.598,1.201,0.297,2.702-0.603,3.3l-0.598,0.301l-0.602,0.599l-0.599,0.602l-0.898,0.297   l-0.603,0.603L321.238,428.767z M336.534,417.367c-0.899,0.899-2.4,0.599-3.299-0.301c-0.899-0.898-0.899-2.4,0.301-3.299   l0.297-0.598l0.603-0.302l0.598-0.598l0.899-0.603l0.602-0.598l0.301-0.301c0.899-0.9,2.396-0.9,3.3,0   c0.898,0.898,0.898,2.4,0,3.299l-0.603,0.598l-0.598,0.603l-0.603,0.598l-0.598,0.603l-0.603,0.301L336.534,417.367z    M350.329,403.869c-0.898,0.899-2.399,1.2-3.596,0.301c-0.903-0.898-0.903-2.399,0-3.299l0.297-0.602l0.603-0.599l0.598-0.598   l0.301-0.602l0.599-0.599l0.602-0.603c0.899-1.2,2.4-1.2,3.299-0.297c0.899,0.899,1.201,2.396,0.301,3.296l-0.602,0.602   l-0.598,0.599l-0.603,0.602l-0.297,0.899l-0.602,0.602L350.329,403.869z M362.029,388.573c-0.602,1.2-2.099,1.501-3.299,0.898   c-1.2-0.898-1.2-2.399-0.602-3.299l0.301-0.297l0.301-0.904l0.598-0.598l0.302-0.602l0.598-0.899l0.301-0.598l0,0   c0.899-1.2,2.4-1.501,3.3-0.899c1.199,0.598,1.501,2.099,0.898,3.299l0,0l-0.598,0.9l-0.603,0.598l-0.297,0.899l-0.602,0.602   l-0.302,0.899H362.029z M371.627,372.076c-0.301,1.2-1.798,1.799-2.998,1.2s-1.802-2.1-1.2-3.3l0.301-0.301l0.297-0.598   l0.302-0.899l0.301-0.602l0.598-0.899l0.301-0.598v-0.302c0.599-1.199,1.799-1.802,2.998-1.199c1.2,0.598,1.803,2.099,1.2,3.299   l0,0l-0.301,0.898l-0.297,0.899l-0.603,0.602l-0.301,0.899l-0.297,0.598L371.627,372.076z M379.125,354.38   c-0.301,1.199-1.799,1.798-2.999,1.501c-1.2-0.302-1.798-1.803-1.501-3.002l0.301-0.298l0.301-0.898v-0.903l0.297-0.598   l0.302-0.899l0.301-0.898l0,0c0.301-1.201,1.798-1.804,2.999-1.502c1.2,0.301,1.802,1.799,1.501,2.999l0,0l-0.301,0.898   l-0.302,0.903l-0.297,0.598l-0.301,0.899v0.898L379.125,354.38z M384.226,335.784c-0.301,1.2-1.501,2.099-2.7,1.798   c-1.502,0-2.4-1.497-2.1-2.698l0.301-0.602v-0.899l0.297-0.898v-0.899l0.302-0.898v-0.302c0.301-1.199,1.501-2.099,2.701-2.099   c1.199,0.301,2.099,1.497,2.099,2.697l-0.301,0.602v0.899l-0.301,0.898v0.899l-0.298,0.903V335.784z M386.622,316.887   c0,1.2-1.2,2.1-2.396,2.1c-1.501,0-2.399-1.2-2.399-2.4v-0.598v-0.899l0.301-0.899v-0.902v-0.899v-0.598   c0-1.201,1.196-2.401,2.396-2.401c1.199,0.301,2.399,1.2,2.399,2.698v0.301l-0.301,0.899v0.902v0.899v0.899V316.887z    M386.622,297.392c0,1.498-0.899,2.702-2.396,2.702c-1.199,0-2.399-0.903-2.399-2.104v-0.898l-0.301-0.899v-0.898v-0.903v-0.896   v-0.301c-0.302-1.204,0.602-2.399,2.099-2.701c1.2,0,2.4,0.899,2.4,2.1v0.301l0.301,0.899v1.199v0.899v0.899L386.622,297.392z    M383.925,278.495c0.301,1.2-0.602,2.4-1.798,2.697c-1.2,0.301-2.701-0.598-3.002-1.798v-0.603l-0.301-0.895v-0.903l-0.298-0.598   l-0.301-0.899v-0.602c-0.302-1.196,0.599-2.401,1.798-2.702c1.2-0.598,2.4,0.301,2.701,1.506l0.302,0.598v0.899l0.297,0.899   l0.301,0.898v0.903L383.925,278.495z M378.824,259.899c0.301,1.195-0.298,2.702-1.498,2.999c-1.2,0.598-2.701,0-2.998-1.501l0,0   l-0.301-0.9l-0.302-0.598l-0.301-0.903l-0.297-0.896l-0.301-0.602v-0.301c-0.603-1.196,0-2.701,1.2-2.998   c1.199-0.598,2.696,0,2.998,1.2l0.301,0.301l0.301,0.899l0.297,0.598l0.302,0.902l0.301,0.896L378.824,259.899L378.824,259.899z    M371.326,242.203c0.602,1.2,0,2.701-1.2,3.299c-1.2,0.598-2.697,0-3.299-1.2l0,0l-0.298-0.899l-0.302-0.598l-0.602-0.903   l-0.297-0.602l-0.302-0.895h-0.301c-0.598-1.204-0.297-2.701,0.899-3.303c1.201-0.598,2.702-0.297,3.3,0.903v0.301l0.602,0.598   l0.302,0.899l0.297,0.602l0.602,0.895l0.302,0.903H371.326z M361.428,225.707c0.602,1.2,0.301,2.697-0.598,3.299   c-1.2,0.899-2.701,0.598-3.3-0.602h-0.301l-0.301-0.598l-0.599-0.899l-0.301-0.602l-0.598-0.598l-0.603-0.899l0,0   c-0.899-1.205-0.598-2.702,0.302-3.304c1.199-0.895,2.701-0.598,3.299,0.301l0.301,0.301l0.598,0.602l0.302,0.895l0.598,0.603   l0.603,0.602l0.301,0.899H361.428z M349.431,210.706c0.898,0.904,0.602,2.401-0.301,3.304c-0.899,0.895-2.396,0.895-3.3,0   l-0.598-0.602l-0.598-0.602l-0.603-0.598l-0.301-0.598l-0.598-0.603l-0.603-0.602c-0.9-0.895-0.598-2.396,0.301-3.295   c0.899-0.903,2.4-0.903,3.3,0l0.301,0.598l0.598,0.598l0.603,0.602l0.598,0.602l0.602,0.598L349.431,210.706z M335.635,197.509   c0.899,0.602,0.899,2.1,0.298,3.304c-0.899,0.895-2.396,0.895-3.597,0.297l-0.301-0.598l-0.602-0.301l-0.599-0.602l-0.898-0.598   l-0.604-0.599l-0.598-0.301c-0.899-0.903-1.2-2.4-0.3-3.299c0.897-1.2,2.399-1.2,3.299-0.598l0.602,0.598l0.599,0.598l0.898,0.602   l0.603,0.301l0.598,0.598L335.635,197.509z M320.038,186.11c1.2,0.603,1.497,2.104,0.598,3.304   c-0.598,0.899-2.099,1.196-2.998,0.598l-0.602-0.297l-0.6-0.301l-0.898-0.602l-0.603-0.301l-0.598-0.598l-0.899-0.297   c-0.898-0.602-1.501-2.104-0.602-3.304c0.602-1.196,2.099-1.497,3.002-0.899l0.9,0.598l0.598,0.301l0.899,0.602l0.602,0.301   l0.899,0.598L320.038,186.11z M303.24,176.815c1.2,0.598,1.502,1.802,1.2,2.998c-0.602,1.204-2.1,1.802-3.3,1.204h-0.301   l-0.899-0.602l-0.598-0.301l-0.903-0.301l-0.898-0.301l-0.599-0.297c-1.2-0.598-1.802-1.802-1.2-2.998   c0.302-1.2,1.799-1.798,2.998-1.501l0.899,0.301l0.603,0.598l0.898,0.301l0.899,0.301l0.602,0.301L303.24,176.815z    M285.242,169.918c1.2,0.297,1.803,1.798,1.501,2.994c-0.301,1.205-1.798,1.803-2.998,1.506l-0.602-0.301h-0.599l-0.898-0.301   l-0.903-0.302l-0.898-0.301h-0.599c-1.201-0.301-1.803-1.798-1.502-2.998s1.502-2.099,2.702-1.798l0.899,0.297l0.598,0.301   l0.903,0.301h0.898l0.899,0.301L285.242,169.918z M266.646,165.419c1.201,0.297,2.1,1.497,1.803,2.697   c-0.301,1.2-1.501,2.099-2.702,2.099h-0.301l-0.899-0.297h-0.598l-0.903-0.301h-0.898l-0.899-0.301l0,0c-1.501,0-2.4-1.2-2.099-2.4   c0-1.497,1.199-2.4,2.7-2.099l0,0h0.899l0.899,0.301h0.898l0.899,0.301h0.899H266.646z" fill="#4E5A62"/><g><path d="M4.198,405.969h503.604c2.396,0,4.198,1.802,4.198,3.9v58.786c0,2.104-1.802,3.901-4.198,3.901H4.198    c-2.4,0-4.198-1.798-4.198-3.901v-58.786C0,407.771,1.798,405.969,4.198,405.969z" fill="#4E5A62"/><polygon fill="#FFCC29" points="4.198,409.869 507.802,409.869 507.802,468.655 4.198,468.655   "/><polygon fill="#373435" points="14.096,409.869 15.597,409.869 15.597,436.863 14.096,436.863   "/><polygon fill="#373435" points="22.798,409.869 24.295,409.869 24.295,428.466 22.798,428.466   "/><polygon fill="#373435" points="32.692,409.869 34.193,409.869 34.193,436.863 32.692,436.863   "/><polygon fill="#373435" points="41.39,409.869 42.892,409.869 42.892,428.466 41.39,428.466   "/><polygon fill="#373435" points="51.292,409.869 52.789,409.869 52.789,436.863 51.292,436.863   "/><polygon fill="#373435" points="59.99,409.869 61.487,409.869 61.487,428.466 59.99,428.466   "/><polygon fill="#373435" points="69.884,409.869 71.389,409.869 71.389,436.863 69.884,436.863   "/><polygon fill="#373435" points="78.585,409.869 80.087,409.869 80.087,428.466 78.585,428.466   "/><polygon fill="#373435" points="88.483,409.869 89.98,409.869 89.98,436.863 88.483,436.863   "/><polygon fill="#373435" points="97.182,409.869 98.679,409.869 98.679,428.466 97.182,428.466   "/><polygon fill="#373435" points="107.08,409.869 108.581,409.869 108.581,436.863 107.08,436.863   "/><polygon fill="#373435" points="115.777,409.869 117.279,409.869 117.279,428.466 115.777,428.466   "/><polygon fill="#373435" points="125.675,409.869 127.172,409.869 127.172,436.863 125.675,436.863   "/><polygon fill="#373435" points="134.373,409.869 135.874,409.869 135.874,428.466 134.373,428.466   "/><polygon fill="#373435" points="144.271,409.869 145.772,409.869 145.772,436.863 144.271,436.863   "/><polygon fill="#373435" points="152.972,409.869 154.47,409.869 154.47,428.466 152.972,428.466   "/><polygon fill="#373435" points="162.867,409.869 164.368,409.869 164.368,436.863 162.867,436.863   "/><polygon fill="#373435" points="171.564,409.869 173.066,409.869 173.066,428.466 171.564,428.466   "/><polygon fill="#373435" points="181.467,409.869 182.964,409.869 182.964,436.863 181.467,436.863   "/><polygon fill="#373435" points="190.164,409.869 191.661,409.869 191.661,428.466 190.164,428.466   "/><polygon fill="#373435" points="200.058,409.869 201.559,409.869 201.559,436.863 200.058,436.863   "/><polygon fill="#373435" points="208.756,409.869 210.261,409.869 210.261,428.466 208.756,428.466   "/><polygon fill="#373435" points="218.658,409.869 220.155,409.869 220.155,436.863 218.658,436.863   "/><polygon fill="#373435" points="227.355,409.869 228.854,409.869 228.854,428.466 227.355,428.466   "/><polygon fill="#373435" points="237.254,409.869 238.755,409.869 238.755,436.863 237.254,436.863   "/><polygon fill="#373435" points="245.952,409.869 247.453,409.869 247.453,428.466 245.952,428.466   "/><polygon fill="#373435" points="255.85,409.869 257.351,409.869 257.351,436.863 255.85,436.863   "/><polygon fill="#373435" points="264.547,409.869 266.048,409.869 266.048,428.466 264.547,428.466   "/><polygon fill="#373435" points="274.445,409.869 275.946,409.869 275.946,436.863 274.445,436.863   "/><polygon fill="#373435" points="283.144,409.869 284.645,409.869 284.645,428.466 283.144,428.466   "/><polygon fill="#373435" points="293.042,409.869 294.543,409.869 294.543,436.863 293.042,436.863   "/><polygon fill="#373435" points="301.738,409.869 303.24,409.869 303.24,428.466 301.738,428.466   "/><polygon fill="#373435" points="311.637,409.869 313.138,409.869 313.138,436.863 311.637,436.863   "/><polygon fill="#373435" points="320.339,409.869 321.836,409.869 321.836,428.466 320.339,428.466   "/><polygon fill="#373435" points="330.237,409.869 331.734,409.869 331.734,436.863 330.237,436.863   "/><polygon fill="#373435" points="338.935,409.869 340.432,409.869 340.432,428.466 338.935,428.466   "/><polygon fill="#373435" points="349.13,409.869 350.631,409.869 350.631,436.863 349.13,436.863   "/><polygon fill="#373435" points="357.53,409.869 359.027,409.869 359.027,428.466 357.53,428.466   "/><polygon fill="#373435" points="367.729,409.869 369.227,409.869 369.227,436.863 367.729,436.863   "/><polygon fill="#373435" points="376.126,409.869 377.627,409.869 377.627,428.466 376.126,428.466   "/><polygon fill="#373435" points="386.325,409.869 387.822,409.869 387.822,436.863 386.325,436.863   "/><polygon fill="#373435" points="394.723,409.869 396.224,409.869 396.224,428.466 394.723,428.466   "/><polygon fill="#373435" points="404.921,409.869 406.418,409.869 406.418,436.863 404.921,436.863   "/><polygon fill="#373435" points="413.317,409.869 414.818,409.869 414.818,428.466 413.317,428.466   "/><polygon fill="#373435" points="423.517,409.869 425.018,409.869 425.018,436.863 423.517,436.863   "/><polygon fill="#373435" points="431.914,409.869 433.415,409.869 433.415,428.466 431.914,428.466   "/><polygon fill="#373435" points="442.113,409.869 443.614,409.869 443.614,436.863 442.113,436.863   "/><polygon fill="#373435" points="450.509,409.869 452.01,409.869 452.01,428.466 450.509,428.466   "/><polygon fill="#373435" points="460.708,409.869 462.209,409.869 462.209,436.863 460.708,436.863   "/><polygon fill="#373435" points="469.109,409.869 470.606,409.869 470.606,428.466 469.109,428.466   "/><polygon fill="#373435" points="479.304,409.869 480.806,409.869 480.806,436.863 479.304,436.863   "/><polygon fill="#373435" points="487.705,409.869 489.201,409.869 489.201,428.466 487.705,428.466   "/><polygon fill="#373435" points="497.899,409.869 499.4,409.869 499.4,436.863 497.899,436.863   "/></g><g><g><polygon fill="#3B4958" points="236.953,67.937 247.152,67.937 247.152,95.531 236.953,95.531    "/><polygon fill="#415162" points="236.953,67.937 244.752,67.937 244.752,95.23 236.953,95.23    "/><path d="M242.05,43.642L242.05,43.642c6.599,0,12.002,5.398,12.002,11.997v19.796     c0,6.9-5.403,12.298-12.002,12.298l0,0c-6.598,0-12.293-5.398-12.293-12.298V55.639C229.757,49.04,235.452,43.642,242.05,43.642z     " fill="#243241"/><path d="M242.05,43.642L242.05,43.642c6.599,0,12.002,5.398,12.002,11.997v16.196     c0,6.599-5.403,12.001-12.002,12.001l0,0c-6.598,0-12.293-5.403-12.293-12.001V55.639     C229.757,49.04,235.452,43.642,242.05,43.642z" fill="#243241"/><path d="M251.952,79.633c-2.4,2.701-5.402,4.203-8.999,4.203l0,0c-6.9,0-12.298-5.403-12.298-12.001V55.639     c0-1.802,0.598-3.901,1.501-5.699c2.099-2.4,5.394-4.199,8.999-4.199l0,0c6.895,0,12.293,5.7,12.293,12.298v15.895     C253.449,76.033,252.851,78.132,251.952,79.633z" fill="#283848"/><path d="M229.154,52.34h25.797c0.598,0,0.899,0.602,0.899,0.899l0,0c0,0.598-0.301,0.899-0.899,0.899h-25.797     c-0.598,0-0.899-0.301-0.899-0.899l0,0C228.254,52.942,228.556,52.34,229.154,52.34z M229.154,79.035h25.797     c0.598,0,0.899,0.301,0.899,0.899l0,0c0,0.598-0.301,0.899-0.899,0.899h-25.797c-0.598,0-0.899-0.301-0.899-0.899l0,0     C228.254,79.336,228.556,79.035,229.154,79.035z M229.154,75.736h25.797c0.598,0,0.899,0.297,0.899,0.899l0,0     c0,0.301-0.301,0.899-0.899,0.899h-25.797c-0.598,0-0.899-0.598-0.899-0.899l0,0C228.254,76.033,228.556,75.736,229.154,75.736z      M229.154,72.136h25.797c0.598,0,0.899,0.602,0.899,1.2l0,0c0,0.297-0.301,0.899-0.899,0.899h-25.797     c-0.598,0-0.899-0.602-0.899-0.899l0,0C228.254,72.738,228.556,72.136,229.154,72.136z M229.154,68.836h25.797     c0.598,0,0.899,0.598,0.899,1.2l0,0c0,0.301-0.301,0.899-0.899,0.899h-25.797c-0.598,0-0.899-0.598-0.899-0.899l0,0     C228.254,69.434,228.556,68.836,229.154,68.836z M229.154,65.537h25.797c0.598,0,0.899,0.602,0.899,1.2l0,0     c0,0.297-0.301,0.899-0.899,0.899h-25.797c-0.598,0-0.899-0.602-0.899-0.899l0,0C228.254,66.139,228.556,65.537,229.154,65.537z      M229.154,62.237h25.797c0.598,0,0.899,0.598,0.899,0.899l0,0c0,0.602-0.301,1.2-0.899,1.2h-25.797     c-0.598,0-0.899-0.598-0.899-1.2l0,0C228.254,62.835,228.556,62.237,229.154,62.237z M229.154,58.938h25.797     c0.598,0,0.899,0.602,0.899,0.899l0,0c0,0.598-0.301,1.2-0.899,1.2h-25.797c-0.598,0-0.899-0.602-0.899-1.2l0,0     C228.254,59.541,228.556,58.938,229.154,58.938z M229.154,55.639h25.797c0.598,0,0.899,0.598,0.899,0.899l0,0     c0,0.602-0.301,1.2-0.899,1.2h-25.797c-0.598,0-0.899-0.598-0.899-1.2l0,0C228.254,56.237,228.556,55.639,229.154,55.639z" fill="#1A2530"/><path d="M229.154,52.34h25.797h0.301c0,0.301,0.297,0.301,0.297,0.602l0,0c0,0.598-0.598,0.895-1.201,0.895     h-25.792l0,0c-0.301,0-0.301-0.297-0.301-0.598l0,0C228.254,52.942,228.556,52.34,229.154,52.34z M255.252,79.035     c0,0,0.297,0.301,0.297,0.598l0,0c0,0.598-0.598,0.899-1.201,0.899h-25.792l0,0c-0.301-0.301-0.301-0.301-0.301-0.598l0,0     c0-0.598,0.301-0.899,0.899-0.899h25.797H255.252z M255.252,75.736c0,0,0.297,0.297,0.297,0.598l0,0     c0,0.301-0.598,0.904-1.201,0.904h-25.792l0,0c-0.301-0.301-0.301-0.603-0.301-0.603l0,0c0-0.602,0.301-0.899,0.899-0.899h25.797     H255.252z M255.252,72.437c0,0,0.297,0.301,0.297,0.598l0,0c0,0.301-0.598,0.899-1.201,0.899h-25.792l0,0     c-0.301-0.301-0.301-0.598-0.301-0.598l0,0c0-0.598,0.301-1.2,0.899-1.2h25.797L255.252,72.437z M255.252,69.137     c0,0,0.297,0.297,0.297,0.598l0,0c0,0.301-0.598,0.904-1.201,0.904h-25.792l0,0c-0.301-0.302-0.301-0.603-0.301-0.603l0,0     c0-0.602,0.301-1.2,0.899-1.2h25.797C254.951,68.836,255.252,68.836,255.252,69.137z M255.252,65.537     c0,0.301,0.297,0.602,0.297,0.602l0,0c0,0.598-0.598,1.196-1.201,1.196h-25.792l0,0c-0.301-0.301-0.301-0.598-0.301-0.598l0,0     c0-0.598,0.301-1.2,0.899-1.2h25.797H255.252z M255.252,62.237c0,0.301,0.297,0.598,0.297,0.598l0,0     c0,0.602-0.598,1.205-1.201,1.205h-25.792c0,0,0,0,0-0.302c-0.301,0-0.301-0.301-0.301-0.602l0,0     c0-0.301,0.301-0.899,0.899-0.899h25.797H255.252z M255.252,58.938c0,0.301,0.297,0.602,0.297,0.602l0,0     c0,0.598-0.598,1.196-1.201,1.196h-25.792v-0.301c-0.301,0-0.301-0.297-0.301-0.598l0,0c0-0.297,0.301-0.899,0.899-0.899h25.797     H255.252z M255.252,55.639c0,0.301,0.297,0.598,0.297,0.598l0,0c0,0.602-0.598,0.903-1.201,0.903h-25.792l0,0     c-0.301,0-0.301-0.301-0.301-0.602l0,0c0-0.301,0.301-0.899,0.899-0.899h25.797H255.252z" fill="#202D3B"/></g><g><path d="M366.529,142.32c-15,54.888-65.088,95.083-124.479,95.083c-59.387,0-109.475-40.195-124.47-95.083h17.094     c14.397,45.593,56.987,78.886,107.375,78.886c50.394,0,92.983-33.293,107.381-78.886H366.529z" fill="#283848"/><path d="M121.176,142.32h13.499c14.397,45.593,56.987,78.886,107.375,78.886     c50.394,0,92.983-33.293,107.381-78.886h13.498c-18.294,48.892-65.689,83.683-120.879,83.683     C186.861,226.003,139.474,191.212,121.176,142.32z" fill="#2C3E50"/></g><polygon fill="#FFCC99" points="95.681,346.279 116.078,358.879 89.679,380.774   "/><path d="M95.681,346.279l20.397,12.6l-2.103,1.798c-1.497,0.603-4.198,1.201-5.695,0.904    c-2.4-0.302-2.099-5.403-3.299-6.6c-1.502-1.501-6.001,1.196-7.498,0.899c-0.903-0.302-1.802-3.901-2.099-6.899L95.681,346.279z" fill="#FFCC99"/><polygon fill="#4D4D4D" points="95.981,375.677 89.679,380.774 90.883,372.975   "/><path d="M95.681,346.279l131.073-227.05c6.599-11.7,27.595,0.297,20.699,11.993L116.078,358.879    c-3.299-0.599-6.598,1.798-7.497,1.199c-1.204-0.598-0.602-5.698-3.002-6.898c-2.401-1.497-7.197,2.399-7.498,0.898    C97.784,352.581,96.88,349.579,95.681,346.279z" fill="#E6B800"/><path d="M107.678,357.378c-0.301-1.497-0.899-3.597-2.099-4.198c-1.196-0.899-3.296,0-5.098,0.602l124.475-215.66    l6.9,4.199L107.678,357.378z" fill="#FFCC00"/><path d="M95.681,346.279l122.376-212.055l6.899,3.897L100.48,353.781c-1.2,0.599-2.099,0.899-2.4,0.297    C97.784,352.581,96.88,349.579,95.681,346.279z" fill="#E6B800"/><polygon fill="#CFA600" points="218.057,134.225 221.656,127.927 242.653,139.92 238.755,146.222   "/><path d="M221.656,127.927l5.097-8.698c6.9-12.001,27.595,0.297,20.699,11.993l-4.8,8.698L221.656,127.927z" fill="#CC3300"/><polygon fill="#283848" points="261.248,122.224 404.022,369.078 401.32,390.074 381.525,381.974 237.852,133.321   "/><polygon fill="#2C3E50" points="261.248,122.224 404.022,369.078 401.32,390.074 250.451,127.325   "/><path d="M242.05,93.729c14.699,0,26.399,11.7,26.399,26.395c0,14.699-11.7,26.395-26.399,26.395    c-14.694,0-26.395-11.696-26.395-26.395C215.655,105.43,227.355,93.729,242.05,93.729z" fill="#ECF0F1"/><path d="M242.05,96.431c13.202,0,23.697,10.496,23.697,23.693s-10.495,23.697-23.697,23.697    c-13.196,0-23.692-10.5-23.692-23.697S228.854,96.431,242.05,96.431z" fill="#BFC2C3"/><path d="M242.05,104.828c8.401,0,15.301,6.899,15.301,15.296c0,8.401-6.9,15.296-15.301,15.296    c-8.396,0-15.296-6.896-15.296-15.296C226.753,111.727,233.654,104.828,242.05,104.828z" fill="#ACAFB0"/><path d="M242.05,114.73c3.003,0,5.403,2.396,5.403,5.394c0,3.002-2.4,5.402-5.403,5.402    c-2.998,0-5.394-2.4-5.394-5.402C236.656,117.126,239.052,114.73,242.05,114.73z" fill="#717373"/></g><path d="M407.618,366.979l-87.279-150.869c24.296-17.697,41.987-43.494,50.088-72.585   c0.301-1.204,0-2.701-0.598-3.604c-0.903-1.197-2.1-1.799-3.3-1.799h-17.099c-1.798,0-3.299,1.2-3.897,3.002   c-6.9,21.293-20.097,39.893-37.492,53.387l-37.195-64.184c1.199-3.304,1.802-6.599,1.802-10.203   c0-13.494-8.999-25.19-21.599-29.092v-2.099c1.802-0.899,3.299-2.4,4.203-3.901c3.897-0.301,5.398-3.897,4.495-6.899   c0.301-0.895,0.301-2.1,0-3.296c0.301-1.204,0.301-2.099,0-3.303c0.301-1.197,0.301-2.396,0-3.295c0.301-1.204,0.301-2.4,0-3.304   c0.301-1.196,0.301-2.396,0-3.295c0.301-1.204,0.301-2.4,0-3.304c0.301-1.196,0.301-2.396,0-3.295   c0.602-2.701-0.297-5.7-2.998-6.599c-0.899-1.501-2.401-3.304-3.601-4.5v-0.301c-2.099-1.798-5.695-3.6-8.396-3.897l-2.998-0.301   c-0.302,0-0.302,0-0.302,0c-2.4,0-3.6,0.598-5.398,1.196c-0.301,0-0.602,0.301-0.602,0.301c-3.596,1.501-6.298,4.198-8.096,7.502   c-0.602,0.301-1.501,0.899-2.099,1.497c-1.2,1.501-1.501,3.002-0.903,4.5c0,0.301,0,0.301,0,0.602   c-0.297,0.899-0.297,2.099,0,3.295c-0.297,0.903-0.297,2.1,0,3.304c-0.297,0.899-0.297,2.099,0,3.295   c-0.297,0.903-0.297,2.1,0,3.304c-0.297,0.899-0.297,1.798,0,2.999v0.297c-0.297,1.204-0.297,2.099,0,3.303   c-0.297,1.196-0.297,2.401,0,3.296c-0.598,1.501-0.297,3.303,0.602,4.499c1.2,1.802,2.4,2.1,3.6,2.4   c1.201,1.501,2.698,3.002,4.199,3.901v2.099c-12.6,3.901-21.297,15.598-21.297,29.092c0,4.203,0.903,8.698,2.701,12.599   l-36.296,62.988c-18.591-13.498-32.391-32.692-39.291-54.587c-0.598-1.802-2.099-3.002-3.897-3.002H117.58   c-1.205,0-2.401,0.602-3.304,1.799c-0.598,0.903-0.899,2.4-0.598,3.604c8.1,29.689,26.395,55.788,51.589,73.781L92.08,344.181   c-0.296,0.301-0.296,0.902-0.296,1.2l-6.302,34.795c-0.297,1.798,0.602,3.299,2.099,4.198c1.501,0.899,3.303,0.899,4.499-0.301   l26.696-21.895c0.301-0.301,0.602-0.598,0.903-1.2l74.083-128.377c15.296,6.001,31.796,8.999,48.289,8.999   c16.501,0,32.997-3.295,48.294-9.296l87.58,151.769c0.603,0.898,1.201,1.502,2.1,1.803l19.499,8.095   c1.2,0.603,2.697,0.302,3.596-0.301c1.201-0.598,2.104-1.798,2.104-2.998l2.696-20.996   C408.221,368.776,407.919,367.878,407.618,366.979z M401.32,390.074l-19.795-8.101l-89.383-154.766   c-15.297,6.598-32.396,10.195-50.093,10.195c-17.696,0-34.49-3.597-50.087-10.195l-75.885,131.671l-2.103,1.798l-17.993,15   l-6.302,5.098l1.204-7.8l4.5-23.993l0.297-2.702l75.286-130.17c-25.796-17.098-44.991-43.197-53.387-73.789h3.596h13.499   c7.799,24.596,23.693,45.295,44.393,59.388l38.99-67.483l0.903-1.501c-2.099-3.6-3.304-8.1-3.304-12.599   c0-12.896,9.3-23.693,21.297-26.094v-7.498c-2.396-1.2-4.499-2.998-6-5.699c-0.895,0-2.099,0.301-2.698-0.301   c-0.297-0.598,0-1.497,0.899-1.497h1.201c0-0.602-0.297-0.903-0.297-1.501c-0.602,0-1.204,0-1.803-0.297   c-0.297-0.603,0-1.501,0.899-1.501h0.603v-1.501c-0.603,0-0.903,0-1.502-0.602c-0.297-0.297,0-1.497,0.899-1.497h0.603v-1.201   c-0.603,0-1.201,0-1.502-0.899c-0.297-0.602,0.301-1.2,0.899-1.2h0.603v-1.2c-0.603,0-0.903,0-1.502-0.602   c-0.297-0.598,0-1.497,0.899-1.497h0.603v-1.201c-0.603,0-0.903,0-1.502-0.598c-0.297-0.602,0-1.501,0.899-1.501h0.603v-1.2   c-0.603,0-0.903,0-1.502-0.602c-0.297-0.598,0-1.497,0.899-1.497h0.603v-1.201c-0.603,0-0.903,0-1.502-0.598   c-0.297-0.602,0-1.501,0.899-1.501h0.603c0-0.297,0.301-0.899,0.301-1.501c-0.602,0-1.502,0.301-1.803-0.598   c-0.297-1.502,1.502-1.2,2.1-1.2c0.899-3.3,3.6-6.298,6.598-7.498c0.598-0.301,2.099-1.2,4.499-1.2l2.999,0.301   c1.798,0,4.499,1.798,5.699,2.999h0.301c0.899,0.899,2.697,3.6,2.998,4.796l0.301,0.603h1.201c1.2,0.301,1.2,1.798,0,1.798h-0.899   v1.501h0.899c1.2,0.301,1.2,2.099,0,2.099h-0.899v1.201h0.899c1.2,0.301,1.2,2.099,0,2.099h-0.899v1.2h0.899   c1.2,0.301,1.2,2.099,0,2.099h-0.899v1.201h0.899c1.2,0.301,1.2,2.099,0,2.099h-0.899v1.2h0.899c1.2,0.301,1.2,2.099,0,2.099   h-0.899v1.201l0.899,0.301c1.2,0,1.2,1.798,0,1.798h-0.899v1.501h0.899c1.2,0,1.2,1.798,0,1.798h-0.899   c0,0.598-0.302,0.899-0.302,1.501h1.201c1.2,0,1.2,1.798,0,1.798h-2.1c-1.2,2.701-3.299,4.5-5.699,5.699v7.498   c11.998,2.401,21.297,13.197,21.297,26.094c0,3.604-0.903,7.201-2.104,10.5l40.194,70.189c20.096-14.1,35.394-34.499,42.891-58.493   h13.498h3.601c-8.1,29.994-26.696,55.49-51.594,72.585l89.087,154.173L401.32,390.074z" fill="#4E5A62"/><path d="M242.05,146.519c0,0,1.502,0,1.803,0c0.598,0,0.598,0,0.598,0l1.2-0.297l16.797,29.092l21.594,37.793   c0,0-16.793,7.798-41.992,8.099c-25.49-0.301-41.992-8.099-41.992-8.099l21.598-37.793l16.797-29.092c0,0,0.899,0.297,1.196,0.297   c0,0,0,0,0.301,0C240.553,146.519,242.05,146.519,242.05,146.519z M240.854,150.721l-34.794,60.287   c2.4,0.603,4.499,1.502,6.598,1.799c9.597,2.701,19.5,3.901,29.393,3.901c9.902,0,19.8-1.2,29.397-3.901   c2.099-0.598,4.198-1.196,6.297-1.799l-34.489-60.287c-0.301,0-0.602,0-1.205,0l0,0l0,0   C241.452,150.721,241.156,150.721,240.854,150.721z" fill="#4E5A62"/></g></svg>