<?xml version="1.0" ?><!DOCTYPE svg  PUBLIC '-//W3C//DTD SVG 1.1//EN'  'http://www.w3.org/Graphics/SVG/1.1/DTD/svg11.dtd'><svg height="2048px" style="shape-rendering:geometricPrecision; text-rendering:geometricPrecision; image-rendering:optimizeQuality; fill-rule:evenodd; clip-rule:evenodd" viewBox="0 0 2048 2048" width="2048px" xml:space="preserve" xmlns="http://www.w3.org/2000/svg" xmlns:xlink="http://www.w3.org/1999/xlink"><defs><style type="text/css">
   <![CDATA[
    .fil3 {fill:none}
    .fil2 {fill:none;fill-rule:nonzero}
    .fil0 {fill:#424242}
    .fil1 {fill:#424242;fill-rule:nonzero}
   ]]>
  </style></defs><g id="Layer_x0020_1"><g id="_246135896"><path class="fil0" d="M1024 255.999c204.356,0 398.579,80.465 543.058,224.942 144.477,144.48 224.942,338.703 224.942,543.058 0,204.356 -80.465,398.579 -224.942,543.058 -144.48,144.477 -338.703,224.942 -543.058,224.942 -204.356,0 -398.579,-80.465 -543.058,-224.942 -144.477,-144.48 -224.942,-338.703 -224.942,-543.058 0,-204.356 80.465,-398.579 224.942,-543.058 144.48,-144.477 338.703,-224.942 543.058,-224.942zm476.563 291.437c-126.826,-126.826 -297.177,-197.397 -476.563,-197.397 -179.386,0 -349.738,70.5709 -476.563,197.397 -126.826,126.826 -197.397,297.177 -197.397,476.563 0,179.386 70.5709,349.738 197.397,476.563 126.826,126.826 297.177,197.397 476.563,197.397 179.386,0 349.738,-70.5709 476.563,-197.397 126.826,-126.826 197.397,-297.177 197.397,-476.563 0,-179.386 -70.5709,-349.738 -197.397,-476.563z" id="_246136832"/><path class="fil1" d="M959.039 689.95l78.8138 45.5032 0.0614174 0c5.60906,3.24095 9.37678,8.45788 10.9311,14.2559 1.54961,5.78622 0.885827,12.1949 -2.36693,17.8276l-280.547 485.921 -0.0259843 -0.0153543c-3.26693,5.6315 -8.47442,9.40394 -14.2276,10.9465 -5.75788,1.54252 -12.1465,0.87756 -17.7673,-2.36693l-0.0614174 0 -78.8564 -45.5268 -0.00236221 -0.0011811c-5.60552,-3.23622 -9.37678,-8.4567 -10.9311,-14.2547 -1.55079,-5.78622 -0.885827,-12.1949 2.36693,-17.8276l0.0259843 0.0153543 280.488 -485.82 0.0318898 -0.119291c3.23622,-5.60552 8.4567,-9.37678 14.2547,-10.9311 5.78859,-1.54725 12.1949,-0.885827 17.8276,2.36811l-0.0153543 0.0248032z" id="_246136568"/><path class="fil1" d="M735.304 1301.64l-104.369 77.2571c-3.19961,2.77914 -7.51182,4.26024 -12.0555,3.74174 -8.59961,-0.981497 -14.7756,-8.74961 -13.7953,-17.3492l15.5728 1.77756 -15.5516 -1.77638 14.765 -129.376c0.137008,-2.36103 0.811418,-4.72678 2.07402,-6.91418 4.32756,-7.49646 13.9146,-10.0654 21.4099,-5.7378l-0.034252 0.0590552 89.2028 51.502c2.33858,1.06536 4.44567,2.72126 6.08268,4.93229 5.14961,6.9567 3.68504,16.7728 -3.27166,21.9225l-0.0295276 -0.0389764z" id="_246136520"/><path class="fil1" d="M1015.83 562.467c115.049,142.16 212.686,274.621 275.022,377.42 32.4827,53.5678 55.5024,99.2599 66.593,134.338 13.0087,41.1378 10.2567,70.6217 -11.465,85.389 -1.93347,1.31575 -3.92953,2.4626 -5.98701,3.43819 -1.91575,1.33347 -3.8941,2.49095 -5.92796,3.47599 -23.2299,11.237 -49.1138,-0.785434 -76.9335,-31.8473 -23.6114,-26.3599 -50.0327,-67.6938 -78.4158,-120.653 -57.1678,-106.66 -123.097,-261.857 -190.404,-437.144l-0.068504 0.0259843c-3.10276,-8.07993 0.93189,-17.1473 9.013,-20.2488 6.92599,-2.65984 14.576,-0.0744095 18.574,5.8063z" id="_246136328"/><line class="fil2" id="_246136376" x1="1331.13" x2="1331.13" y1="1252.31" y2="1252.31"/><line class="fil2" id="_246136352" x1="1357.95" x2="1357.95" y1="1236.3" y2="1236.3"/><path class="fil1" d="M1342.96 1162.1c14.2087,-8.50158 31.239,-8.56654 47.2831,-1.8 14.3988,6.07205 28.1351,17.9032 37.7965,34.05 9.66142,16.1433 13.591,33.8516 12.1347,49.4233 -1.61693,17.3055 -9.73347,32.2701 -23.9669,40.7859 -14.2075,8.5004 -31.2378,8.5689 -47.2819,1.80118 -14.3976,-6.07087 -28.1374,-17.902 -37.8,-34.0488l-0.0011811 -0.00472441c-9.65788,-16.1421 -13.5898,-33.8504 -12.1323,-49.4209 1.61811,-17.3043 9.73702,-32.2689 23.9681,-40.7859z" id="_246135608"/><path class="fil1" d="M1486.35 1312.28c10.128,23.7839 14.041,59.0445 16.6429,96.7135l2.20158 31.8685 -26.5075 -17.8477c-31.3229,-21.0898 -59.9032,-42.1087 -75.4442,-62.7804 -20.1284,-26.7732 -21.4075,-51.9544 11.0445,-74.2796l2.14252 -1.28622c35.5914,-16.9571 56.7827,-3.24095 69.9201,27.6118z" id="_246136232"/><path class="fil0" d="M475.428 926.457l295.079 0 -112.632 195.084 -182.446 0 0 -195.084zm504.181 0l131.3 0c15.4866,33.0425 31.663,65.7579 48.8103,97.7505 16.9618,31.6453 36.7878,66.7819 59.1934,97.3335l-351.936 0 112.632 -195.084zm328.296 0l264.666 0 0 195.084 -185.895 0c0.650788,-18.0012 -3.34961,-36.9366 -8.68583,-53.8122 -14.8866,-47.08 -43.1788,-96.9083 -68.713,-139.016l-1.37244 -2.25591z" id="_246135992"/></g></g><rect class="fil3" height="2048" width="2048"/></svg>